# xmcd
#
# Track frame offsets: 
#        150
#        10014
#        22603
#        33567
#        46251
#        56440
#        68667
#        76724
#        88612
#        98571
#        110534
#        119966
#        133587
#        144020
#        158781
#        170022
#        177808
#        190716
#        196472
#        209497
#        219232
#        231954
#        237505
#        244694
#        259113
#        269545
#        278181
#        288478
#        301088
#        314651
#        323214
#        329701
#        339896
#
# Disc length: 4635 seconds
#
# Revision: 1
# Processed by: cddbd v1.5.2PL0 Copyright (c) Steve Scherf et al.
# Submitted via: ExactAudioCopy v1.3
#
DISCID=d5121921
DTITLE=Al Clauser And His Oklahoma Outlaws - Hot Western Swing 1937-19
DTITLE=48 featuring Patti Page
DYEAR=2004
DGENRE=Western Swing
TTITLE0=Cherokee Stomp
TTITLE1=It's A Rugged Road
TTITLE2=Stompin' At The Riverside
TTITLE3=Sally Goodin
TTITLE4=Dance Of The Dodo Bird
TTITLE5=My Sweet Papa
TTITLE6=Dark Eyes
TTITLE7=Why Waste Your Tears On Me
TTITLE8=Broken Fingers
TTITLE9=Weary Heart And Worried Mind
TTITLE10=Draggin' The Bow
TTITLE11=Some Sweet Day
TTITLE12=Maggie Blues
TTITLE13=Craw Dad Song
TTITLE14=Osage Blues
TTITLE15=My Little Cherokee
TTITLE16=I Ain't Lazy Baby I'm Just Tired
TTITLE17=Texas Quickstep
TTITLE18=Soldier's Return
TTITLE19=Crossbow
TTITLE20=Never Let Those Deep Blues Get You Down
TTITLE21=Oklahoma Stomp (1947)
TTITLE22=Frankie and Johnnie
TTITLE23=A Good Man Gettin' A Bad Deal
TTITLE24=Sunrise On A Guinea Farm
TTITLE25=Old Gal
TTITLE26=South
TTITLE27=Never Pretend
TTITLE28=Wake Up Susan
TTITLE29=Foolin' Around
TTITLE30=Devil's Dream
TTITLE31=Saddle Your Worries
TTITLE32=Oklahoma Stomp (1939)
EXTD=
EXTT0=
EXTT1=
EXTT2=
EXTT3=
EXTT4=
EXTT5=
EXTT6=
EXTT7=
EXTT8=
EXTT9=
EXTT10=
EXTT11=
EXTT12=
EXTT13=
EXTT14=
EXTT15=
EXTT16=
EXTT17=
EXTT18=
EXTT19=
EXTT20=
EXTT21=
EXTT22=
EXTT23=
EXTT24=
EXTT25=
EXTT26=
EXTT27=
EXTT28=
EXTT29=
EXTT30=
EXTT31=
EXTT32=
PLAYORDER=
